<?xml version="1.0" encoding="UTF-8"?>
<svg width="24px" height="24px" viewBox="0 0 24 24" version="1.1" xmlns="http://www.w3.org/2000/svg" xmlns:xlink="http://www.w3.org/1999/xlink">
    <title>ic-cloudera-sm</title>
    <g id="Symbols" stroke="none" stroke-width="1" fill="none" fill-rule="evenodd">
        <g id="icon" transform="translate(2.000000, 2.000000)">
            <path d="M20,10 C20,15.5228571 15.5228571,20 10,20 C4.47714286,20 0,15.5228571 0,10 C0,4.47714286 4.47714286,0 10,0 C15.5228571,0 20,4.47714286 20,10" id="background" fill="#F96702"></path>
            <path d="M10.2901429,13.9537143 C8.10871429,13.9537143 6.49871429,12.2322857 6.49871429,9.97942857 C6.49871429,7.72514286 8.10871429,6.008 10.2901429,6.008 C11.3701429,6.008 12.2701429,6.42942857 12.9058571,7.12942857 L14.8644286,5.16942857 C13.6944286,4.00371429 12.0715714,3.31371429 10.2287143,3.31371429 C6.39157143,3.31371429 3.433,6.24228571 3.433,9.97942857 C3.433,13.718 6.39157143,16.6465714 10.2287143,16.6465714 C12.1187143,16.6465714 13.7987143,15.8994286 14.9872857,14.6451429 L13.0272857,12.6865714 C12.3887143,13.4708571 11.443,13.9537143 10.2901429,13.9537143" id="C" fill="#FFFFFF"></path>
        </g>
    </g>
</svg>