<svg width="38" height="38" viewBox="0 0 38 38" fill="none" xmlns="http://www.w3.org/2000/svg">
    <path fill-rule="evenodd" clip-rule="evenodd" d="M11.266 26.734h21.656V5.078H11.266v21.656zM25.96 12.04h3.867V8.172h-3.867v3.867zm-6.188 0h4.641V8.172h-4.64v3.867zm-5.414 0h3.866V8.172h-3.866v3.867zm11.602 6.188h3.867v-4.641h-3.867v4.64zm-6.188 0h4.641v-4.641h-4.64v4.64zm-5.414 0h3.866v-4.641h-3.866v4.64zm11.602 5.412h3.867v-3.866h-3.867v3.866zm-6.188 0h4.641v-3.866h-4.64v3.866zm-5.414 0h3.866v-3.866h-3.866v3.866zM5.08 11.266v21.656h21.655v-3.094H8.17V11.266H5.078z" fill="#188618"/>
</svg>
