<svg width="39" height="38" viewBox="0 0 39 38" fill="none" xmlns="http://www.w3.org/2000/svg">
    <path fill-rule="evenodd" clip-rule="evenodd" d="M23.367 5.852H12.54v2.32c0 .266.603.773 1.547.773h7.734c.944 0 1.547-.507 1.547-.773v-2.32zM8.672 9.719V28.28h7.873a9.183 9.183 0 0 0 1.117 3.094H5.578V6.625h4.64V3.531h15.47v3.094h4.64v12.084a9.23 9.23 0 0 0-3.094-1.117V9.72h-2.083c-.67.922-1.903 1.547-3.33 1.547h-7.735c-1.428 0-2.66-.625-3.33-1.547H8.671zm6.187 6.187h-3.093v-3.094h3.093v3.094zm6.188 11.448 3.094 3.094 6.187-6.188-1.237-1.24-4.95 4.95-1.857-1.855-1.237 1.239zm-3.094-.619a7.734 7.734 0 1 1 15.469 0 7.734 7.734 0 0 1-15.469 0zm-1.547-10.829h7.735v-3.094h-7.735v3.094zm-1.547 4.64h-3.093v-3.093h3.093v3.094zm1.547 0h2.384a9.257 9.257 0 0 1 5.35-2.954v-.139h-7.734v3.094zm-1.547 4.642h-3.093v-3.094h3.093v3.093zm1.547 0h.14a9.182 9.182 0 0 1 1.116-3.094h-1.256v3.093z" fill="#6E5600"/>
</svg>
