<svg width="16" height="16" viewBox="0 0 16 16" fill="none" xmlns="http://www.w3.org/2000/svg">
    <path fill-rule="evenodd" clip-rule="evenodd" d="m10.037 8.344.098-.112c.83-.962 1.199-1.745 1.199-2.54 0-1.668-1.496-3.026-3.334-3.026S4.667 4.024 4.667 5.692c0 .795.37 1.578 1.198 2.54l.098.112v.002c.23.262.482.55.612.987H7.5V8h1v1.333h.925c.13-.438.382-.725.611-.987l.002-.002zM3.333 5.692c0-2.404 2.094-4.359 4.667-4.359s4.667 1.955 4.667 4.359c0 1.138-.47 2.19-1.52 3.41l-.107.121c-.28.32-.373.427-.373.777v.666H5.334V10c0-.35-.095-.457-.372-.774l-.002-.003-.106-.122c-1.051-1.22-1.52-2.271-1.52-3.41zM6.851 14h-.518v-.667h3.334V14h-.518A1.328 1.328 0 0 1 8 14.667c-.492 0-.917-.27-1.149-.667zm-.85-1.333h4v-1.334H6v1.334zm2.608-6c.136 0 .256-.162.317-.301A.775.775 0 0 0 8.999 6H7a.81.81 0 0 0 .072.372c.062.143.18.295.32.295H8.61zM6.64 5.333h2.725l.1.109c.279.306.237.82.072 1.193-.193.438-.54.698-.927.698H7.394c-.392 0-.74-.26-.93-.692-.166-.374-.207-.89.076-1.2l.099-.108z" fill="#6C2500"/>
</svg>
