<svg width="16" height="16" viewBox="0 0 16 16" fill="none" xmlns="http://www.w3.org/2000/svg">
    <path d="M4.316 10.667h-1.32V6.464L1.7 6.842v-1l2.496-.863h.121v5.688zM10 10.667H6.031v-.86L7.86 7.885c.45-.513.676-.92.676-1.222 0-.245-.053-.431-.16-.559-.107-.127-.262-.191-.465-.191-.2 0-.363.086-.488.258-.125.169-.188.381-.188.636h-1.32c0-.349.087-.67.262-.965.174-.296.416-.528.726-.695.31-.167.657-.25 1.04-.25.614 0 1.087.142 1.417.426.334.284.5.691.5 1.223 0 .224-.041.442-.125.656a2.89 2.89 0 0 1-.39.668 9.721 9.721 0 0 1-.848.933l-.734.848H10v1.016zM11.867 7.272h.621c.492 0 .739-.24.739-.723a.618.618 0 0 0-.176-.457c-.117-.12-.283-.18-.496-.18a.721.721 0 0 0-.457.153.466.466 0 0 0-.192.379H10.59c0-.3.083-.566.25-.8a1.64 1.64 0 0 1 .691-.548c.297-.132.623-.199.977-.199.633 0 1.13.145 1.492.434.362.289.543.686.543 1.191 0 .245-.076.477-.227.695a1.593 1.593 0 0 1-.652.528c.302.11.54.276.711.5.172.221.258.496.258.824 0 .508-.195.914-.586 1.219-.39.304-.904.457-1.54.457-.372 0-.718-.07-1.038-.211a1.644 1.644 0 0 1-.723-.59 1.543 1.543 0 0 1-.246-.86h1.324c0 .175.07.326.211.454.14.127.314.191.52.191.232 0 .416-.064.554-.191a.653.653 0 0 0 .207-.496c0-.287-.071-.49-.214-.61-.144-.12-.342-.18-.594-.18h-.64v-.98z" fill="#000"/>
</svg>
