<svg viewBox="0 0 192 192" fill="none" xmlns="http://www.w3.org/2000/svg" width="1em" height="1em">
  <path fill-rule="evenodd" clip-rule="evenodd" d="M159.333 159.333H87.556C81.733 159.333 77 154.36 77 148.25c0-6.111 4.733-11.084 10.556-11.084h33.777c12.808 0 23.223-10.654 23.223-23.75 0-13.095-10.415-23.75-23.223-23.75H70.667c-5.822 0-10.556-4.972-10.556-11.082 0-6.112 4.734-11.084 10.556-11.084h33.777c12.807 0 23.223-10.654 23.223-23.75 0-4.023-1.075-7.758-2.81-11.084h34.476v126.667zM32.667 32.667h71.777c5.823 0 10.556 4.972 10.556 11.084 0 6.11-4.733 11.083-10.556 11.083H70.667c-12.808 0-23.223 10.653-23.223 23.75 0 13.094 10.415 23.749 23.223 23.749h50.666c5.822 0 10.556 4.973 10.556 11.083 0 6.111-4.734 11.084-10.556 11.084H87.556c-12.807 0-23.223 10.654-23.223 23.75 0 4.023 1.075 7.758 2.81 11.083H32.667V32.667zM159.333 20H32.667C25.671 20 20 25.67 20 32.666v126.667C20 166.329 25.671 172 32.667 172h126.666c6.996 0 12.667-5.671 12.667-12.667V32.667C172 25.67 166.329 20 159.333 20z" fill="#4CCF4C"/>
</svg>
