<svg width="16" height="16" viewBox="0 0 16 16" fill="none" xmlns="http://www.w3.org/2000/svg">
    <path d="m6.45 4.446-1.172.423 1.164.42.427 1.171.42-1.17 1.171-.421-1.171-.423-.42-1.168-.418 1.168zM5.736 8.22l.862-.31.307-.86.309.86.86.31-.86.31-.309.859-.313-.86-.856-.31zM8.855 6.124l-1.48.533 1.47.53.537 1.477.53-1.476 1.477-.531-1.477-.533-.53-1.474-.527 1.474z" fill="#1B2329"/>
    <path fill-rule="evenodd" clip-rule="evenodd" d="M5.667 12 8 15.113 10.334 12h4.333V1.333H1.333V12h4.334zm.667-1.333H2.667v-8h10.666v8H9.668L8 12.887l-1.667-2.22z" fill="#1B2329"/>
</svg>
